<svg xmlns="http://www.w3.org/2000/svg" viewBox="0 0 789.68 749.54"><defs><style>.cls-1{fill:#39363d;stroke:#bcbec0;stroke-miterlimit:10;stroke-width:2px;}.cls-2{fill:#6d6e71;}</style></defs><title>book-bg</title><g id="Layer_2" data-name="Layer 2"><g id="_1" data-name="1"><g id="book1"><path id="book1-2" data-name="book1" class="cls-1" d="M729.31,631.47c-62.88,2.75-170.49,22.25-297.25,106.74a62.05,62.05,0,0,1-71.51-2.08C245.69,650.52,129.49,632.93,61.42,631.25A62,62,0,0,1,1,569.25V63.65a62,62,0,0,1,64.39-62C130.57,4.07,238.45,23.22,357.17,107a61.94,61.94,0,0,0,73.14-1.36C544.21,19.33,657.8,2.09,725.64,1a62,62,0,0,1,63,62V569.51A62,62,0,0,1,729.31,631.47Z"/><line class="cls-2" x1="394.44" y1="133.14" x2="395.27" y2="728.22"/></g></g></g></svg>