<svg xmlns="http://www.w3.org/2000/svg" xmlns:xlink="http://www.w3.org/1999/xlink" viewBox="0 0 137.33 112.04"><defs><style>.cls-1{fill:url(#radial-gradient);}</style><radialGradient id="radial-gradient" cx="68.67" cy="56.02" fx="86.04636724320315" r="65.59" gradientUnits="userSpaceOnUse"><stop offset="0" stop-color="#bcbec0"/><stop offset="0.12" stop-color="#afb1b3"/><stop offset="0.5" stop-color="#8c8d8f"/><stop offset="0.8" stop-color="#767779"/><stop offset="1" stop-color="#6e6f71"/></radialGradient></defs><title>cauldron</title><g id="Layer_2" data-name="Layer 2"><g id="_6" data-name="6"><path id="cauldron" class="cls-1" d="M137.33,6.82C137.33,0,106.59.4,68.67.4S0-2.4,0,6.82c0,3.11,4.09,4.8,11.1,5.7C6.67,17.65,4.17,25,4.17,35.45a64.78,64.78,0,0,0,30.2,54.8,19.27,19.27,0,0,0-3.21,7.29c-1.47,6.59.27,12.6,3.89,13.41s7.76-3.89,9.23-10.49a20.91,20.91,0,0,0,.52-4.86,64.89,64.89,0,0,0,55.52-3.38,18,18,0,0,0-.16,9.24c1.47,6.6,5.6,11.29,9.23,10.49s5.36-6.82,3.89-13.41c-1.14-5.13-3.89-9.09-6.76-10.23a64.73,64.73,0,0,0,27.32-52.86c0-11.06-2.78-18.6-7.66-23.76C133.22,10.75,137.33,9.25,137.33,6.82Z"/></g></g></svg>