<svg xmlns="http://www.w3.org/2000/svg" xmlns:xlink="http://www.w3.org/1999/xlink" viewBox="0 0 76.34 136.12"><defs><style>.cls-1{fill:url(#radial-gradient);}.cls-2{fill:url(#radial-gradient-2);}.cls-3{fill:url(#radial-gradient-3);}</style><radialGradient id="radial-gradient" cx="36.74" cy="29.12" r="29.07" gradientTransform="translate(0 -58.24) scale(1 3)" gradientUnits="userSpaceOnUse"><stop offset="0" stop-color="#fff"/><stop offset="0.02" stop-color="#f6fbfe"/><stop offset="0.28" stop-color="#62c1e9"/><stop offset="0.39" stop-color="#27aae1"/><stop offset="0.44" stop-color="#25a2db"/><stop offset="0.63" stop-color="#1e81c5"/><stop offset="0.73" stop-color="#1b75bc"/><stop offset="0.78" stop-color="#2160af"/><stop offset="0.87" stop-color="#28469f"/><stop offset="0.94" stop-color="#2c3795"/><stop offset="1" stop-color="#2e3192"/></radialGradient><radialGradient id="radial-gradient-2" cx="38.17" cy="132.93" r="18.52" gradientTransform="translate(0 -137.86) scale(1 1.93)" gradientUnits="userSpaceOnUse"><stop offset="0" stop-color="#f4f3ae"/><stop offset="0.13" stop-color="#f5e89c"/><stop offset="0.53" stop-color="#f8ca6b"/><stop offset="0.83" stop-color="#fab74c"/><stop offset="1" stop-color="#fbb040"/></radialGradient><radialGradient id="radial-gradient-3" cx="38.17" cy="94.93" r="33.3" gradientTransform="translate(0 -468.43) scale(1 5.8)" gradientUnits="userSpaceOnUse"><stop offset="0" stop-color="#f4f3ae"/><stop offset="0.16" stop-color="#f4eea6"/><stop offset="0.39" stop-color="#f6e292"/><stop offset="0.67" stop-color="#f8cd70"/><stop offset="1" stop-color="#fbb041"/><stop offset="1" stop-color="#fbb040"/></radialGradient></defs><title>goblet</title><g id="Layer_2" data-name="Layer 2"><g id="_4" data-name="4"><g id="goblet"><path id="fire" class="cls-1" d="M13.16,56.86C3,50.88,9.24,37.58,14,30.55c0,0,1.32,4.11,6.6,8.64S17.5,23,25.61,14.4c0,0,5.13,9.25,9.59,12.79S42.84,6.24,39,0c0,0,7.68-.69,12.48,21s1.06,9.72,1.06,9.72C61.18,27.53,58.2,18,58.2,18c12,22.65,6.81,35.75,3.92,38.86S13.16,56.86,13.16,56.86Z"/><g id="golet"><path class="cls-2" d="M52.92,127.35c-7.77,0-12.94-14.59-14.29-24.27a.64.64,0,0,0-.84-.52.65.65,0,0,0-.85.52c-1.35,9.68-4.92,24.27-14.29,24.27-13.76,8.51,11,8.76,17.84,8.77h.58C47.63,136.11,66.66,135.85,52.92,127.35Z"/><path class="cls-3" d="M76.34,72.33c0,20.39-17.09,36.92-38.17,36.92S0,92.72,0,72.33,17.09,56.27,38.17,56.27,76.34,51.94,76.34,72.33Z"/></g></g></g></g></svg>