<svg xmlns="http://www.w3.org/2000/svg" viewBox="0 0 62.98 46.81"><defs><style>.cls-1{fill:none;stroke:#fff;stroke-miterlimit:10;stroke-width:3px;}.cls-2{fill:#fff;}</style></defs><title>harry</title><g id="Layer_2" data-name="Layer 2"><g id="_1" data-name="1"><g id="harry"><g id="glasses"><circle class="cls-1" cx="14.03" cy="32.78" r="12.53"/><circle class="cls-1" cx="48.94" cy="32.78" r="12.53"/><line class="cls-1" x1="26.56" y1="32.78" x2="36.41" y2="32.78"/></g><g id="lightning"><path class="cls-2" d="M25.72,0c-.06,1-.16,2-.31,2.9s-.32,1.9-.49,2.85c-.38,1.87-.84,3.73-1.37,5.56L21.81,9.46A63.22,63.22,0,0,1,29.64,7.6l2.29-.39-.77,2c-.52,1.35-1.1,2.69-1.71,4-.3.66-.65,1.32-1,2s-.69,1.31-1.08,2c0-.75.11-1.49.19-2.22s.19-1.46.32-2.18c.24-1.44.51-2.87.84-4.29l1.52,1.6a64.88,64.88,0,0,1-7.73,2.21l-2.63.58.89-2.43q1-2.69,2.17-5.3c.43-.86.82-1.74,1.28-2.59S25.18.83,25.72,0Z"/></g></g></g></g></svg>