<svg xmlns="http://www.w3.org/2000/svg" viewBox="0 0 65.39 110.9"><defs><style>.cls-1{fill:#ef3924;}.cls-2{fill:none;stroke:#fff;stroke-miterlimit:10;}.cls-3{fill:#f8e9e0;}.cls-4{fill:#f9a262;}.cls-5{fill:#f2683f;}.cls-6{fill:#f6c099;}.cls-7{fill:#ef4128;}.cls-8{fill:#f49b58;}.cls-9{fill:#f3dac9;}</style></defs><title>jewel</title><g id="Layer_2" data-name="Layer 2"><g id="_1" data-name="1"><g id="jewel"><path class="cls-1" d="M33.13,0c8.37,2.39,28.7,31.09,28.1,35.27S43.89,25.11,43.89,25.11L33.13,3.59"/><line class="cls-2" x1="43.89" y1="25.11" x2="52.92" y2="20.2"/><path class="cls-3" d="M12.81,20.2C9.26,25.11,2.64,34.68,2.64,38.86s11,28.1,29,47.83L43.89,84.9V70l13.16-13A31.79,31.79,0,0,0,43.89,41.85V25.48l-22.12-.37Z"/><path class="cls-4" d="M33.13,0C23.38,3.89,12.81,20.2,12.81,20.2l9,4.91Z"/><polyline class="cls-5" points="43.89 25.48 33.13 0 21.77 25.11"/><path class="cls-5" d="M2.64,71.74c-4.54-8.15-2.33-23.92,0-32.88L9.26,55.3Z"/><polygon class="cls-5" points="61.8 37.04 57.05 56.93 43.89 41.85 43.89 25.48 61.8 37.04"/><path class="cls-1" d="M63.62,71.74c1.8-5.38,3.71-18.24-2.39-36.47L57.05,56.93Z"/><polygon class="cls-5" points="43.89 84.9 63.62 71.74 57.05 56.93 43.89 69.95 43.89 84.9"/><path class="cls-1" d="M52.57,90.58c5.37-5.68,11-18.84,11-18.84L43.89,84.9Z"/><path class="cls-6" d="M32.83,110.9S47.19,99.59,52.57,90.58L43.89,84.9Z"/><polygon class="cls-5" points="32.83 110.9 43.89 84.9 21.77 86.69 32.83 110.9"/><path class="cls-7" d="M32.83,110.9,21.77,86.69l-7.85,3.93C19.39,98.8,32.83,110.9,32.83,110.9Z"/><polygon class="cls-7" points="31.6 86.69 20.16 72.61 21.77 86.69 31.6 86.69"/><path class="cls-8" d="M9.26,55.3,2.64,71.74c1.58,5.87,19.13,15,19.13,15L20.16,72.61Z"/><path class="cls-9" d="M13.92,90.62C11.61,86.69,4.85,77.76,3.24,71.74l19.13,15Z"/><line class="cls-2" x1="21.9" y1="87.43" x2="29.5" y2="82.2"/><path class="cls-9" d="M21.77,25.11,3.22,36.17a81.09,81.09,0,0,1,9.59-16Z"/><polygon class="cls-9" points="22.37 35.49 29.5 25.48 21.77 25.11 22.37 35.49"/></g></g></g></svg>