<svg xmlns="http://www.w3.org/2000/svg" viewBox="0 0 942.02 389.76"><defs><style>.cls-1{fill:#fff;}.cls-2{fill:#1e1e1e;}</style></defs><title>logo</title><g id="Layer_2" data-name="Layer 2"><g id="title_bg" data-name="title&amp;bg"><g id="logo"><polygon class="cls-1" points="26.91 50.28 79.92 50.04 72.36 61.92 72.36 277.92 79.92 290.88 26.07 286.56 36.72 275.76 36.72 65.16 26.91 50.28"/><polygon class="cls-1" points="103.59 34.11 156.6 33.84 149.04 47.37 149.04 293.4 156.6 308.16 102.75 303.24 113.4 290.94 113.4 51.06 103.59 34.11"/><path class="cls-1" d="M20.52,150.48H0v20s19.6,28.62,53,29.7,70.12-32.4,103.6-49.68,17.18-4.32,17.18-4.32-17.18,13-10.7,31.32,5.4,48.6,19.44,48.6,27.6-18.36,26.76-6.48,7.8,6.48,21.84-5.4,20.49-18.06,20.49-18.06-9.73,9.42-11.33-7.86,2.72-79.92-11.32-94L199.8,65.16S162,78.12,162,84.6s11.78,35.64,17.28,36.72c-1.08-19.83,14-29.55,23.76-28.08s7.08,95.34,6.24,102.9c-.24,2.2-7.87,20.14-9.48,9.42-3.24-21.6-19.51-59.6,1.08-67,15.12-5.4-61.56-1.08-75.07,7.11C101.68,160.33,85.32,188.28,53,189.36c-6.14.2-38.63-13.61-43.28-18.9C-.38,159,20.52,150.48,20.52,150.48Z"/><path class="cls-1" d="M230,72.72h21.57V205.56l-10.78,9.72L293.76,211l-11.55-11-4-119.69H283l10.8,27L284,119.16s.36,3.72,5.16,2.28,25.92-19.2,25.92-22.56S303.6,52.8,298.32,54.72s-20.14,14.4-20.14,14.4.94-28.32-2.42-28.8S230,72.72,230,72.72Z"/><path class="cls-1" d="M313.2,60.72l8,4.44L318.48,192l-9.93,11.43,49.63-4.05L351.81,188l-4-119.69h4.78l10.8,27-9.72,11.88s.36,3.72,5.16,2.28,25.92-19.2,25.92-22.56S373.2,40.8,367.92,42.72s-20.14,14.4-20.14,14.4.94-28.32-2.42-28.8S313.2,60.72,313.2,60.72Z"/><path class="cls-1" d="M398.16,115.87,355,118.08l4.8,3.84,16.8,84.48-25.44,54.72-75.84-6.24,2.9-15.84,24.94-10.56-34.56-2.22s-13,6.54-13.92,11.34-10.56,16.8-7.68,18.72,35,21.6,49.92,23,64.8,8.16,64.8,8.16,88.8-152.16,93.6-181.44l-35-1.92,9.52,11.71L403.44,171,391,121.92Z"/><path class="cls-1" d="M459.12,6.24,474,18.72s13,83.47,8.16,82.77-11-7.89-11-7.89,16,121.44,12.06,118.08-8.75-8.25-8.75-8.25l19.68,186.33s5.76-97,8.16-102.24,11,13.92,11,13.92,1.92-53.76,0-115.2c3.84-2.88,13,22.08,13,22.08l-3.84-88.8s11,22.56,14.4,22.56,26.88,0,37.44-14.88l13.92,4.8v66s28.8,28.08,36,31.92S663.66,213.63,667,211.2c4.8-3.53,4.8-3.53,4.8-7.77s-2.62-81-3.69-87.56c-2.4-14.88-24.15-28-30.87-29s-47,21.12-47.52,23-.48,11.52-.48,11.52l-10.08-5.57L582,45.6,548.88,0Z"/><path class="cls-2" d="M635.76,125.28,615,130.08s1.05,74.88,2.49,77.76,8.16,12.48,10.56,12.48,13-7.68,12.48-10.56S637.2,129.6,635.76,125.28Z"/><path class="cls-1" d="M712.08,26.4c-5.76,3.84-28.75,36.89-52.8,52.32-5.32,3.41,23,3.84,23,3.84l1.92,149.28s31.68,22.49,40.8,21.6c2.88-4.32-9-8.1-14.88-16.8,1.44-22.08,1.92-150.72,4.32-154.08s9.09-1.44,12.94-2.4,5.3-11,2.9-13-9.6-.48-15.36-2.4Z"/><path class="cls-1" d="M764.88,41.28c-5.76,3.84-20.93,39.77-45,55.2-5.32,3.41,18.08,1.9,18.08,1.9L739.8,241s51,28.73,60.12,27.84c1-1.48,12.48-19.68,20.64-26.4-2.7-1.87-40.32-2.4-40.32-2.4-3.36,4.8,25.92,6.24,21.6,9.12-4.47,3-4.93,10.64-9.12,9.6-4.83-1.2-21.68-10.85-23-12,1.44-22.08-4.8-141.87-2.4-145.23s12-2.13,15.82-3.09,7.7-9.12,5.3-11-15.84,1-21.6-1Z"/><path class="cls-1" d="M818,79l-29.32,25.55a5.35,5.35,0,0,0-1.82,3.81l-3.18,80.84a5.31,5.31,0,0,0,1.52,3.94l26.71,27.16,19.42,2.53a4.39,4.39,0,0,0,4.19-1.85l19.59-28-11.49-17.69L829.2,213.6l-13-15.36.91-55.44a2.43,2.43,0,0,1,2.87-2.35l29.12,5.34a5.8,5.8,0,0,0,5.69-2.35l8.94-12.55a5.6,5.6,0,0,0,.59-4.78L854.28,95.89A4.69,4.69,0,0,0,852,93.2L823.56,78.37A5,5,0,0,0,818,79Z"/><path class="cls-1" d="M896,64.87,863.17,96.31a1.73,1.73,0,0,0,.41,2.7l6.64,2.06a1.5,1.5,0,0,1,.86,1.26c-3.84,89.91,14.88,116.37-15.9,127,0,0,23.22,13.72,77.7,13.56,6.07,0-25.5-9.06-26.76-20C901.49,182.7,901.3,118.79,902,97c0-1.22,5.69-3.56,6.2-2.46l7.71,26.74c.09.32-3.72,6.11-5.82,9.29a3.06,3.06,0,0,0,.34,3.79h0c1.3.87,2.19.25,3.44-.41l27.51-25.51a1.73,1.73,0,0,0,.49-2.15L923.62,69.79a1.74,1.74,0,0,0-2.41-.73L903.72,79a1.73,1.73,0,0,1-2.56-1.19l-2.22-12A1.73,1.73,0,0,0,896,64.87Z"/><path class="cls-2" d="M818.84,94.49,816.2,125a5.15,5.15,0,0,0,4.65,5.57l18.48,1.71a1.47,1.47,0,0,0,1.51-2L826.6,92.76C824.79,88,819.36,89.18,818.84,94.49Z"/><polygon class="cls-2" points="544.56 120 531.12 115.87 537.84 128.64 544.56 120"/><path class="cls-2" d="M520.56,16.8V109s18.24-6.72,22.56-4.8,4.32-1.44,4.32-6.72S546,21.6,542.16,19.68,520.56,16.8,520.56,16.8Z"/><path class="cls-2" d="M632.4,101.49s-16.8,9.39-17.28,11.79,1,8.64,3.36,8.64,13.44-11,13.92-17.76"/></g></g></g></svg>