<svg xmlns="http://www.w3.org/2000/svg" xmlns:xlink="http://www.w3.org/1999/xlink" viewBox="0 0 200.45 102.73"><defs><style>.cls-1{fill:url(#radial-gradient);}.cls-2{fill:url(#radial-gradient-2);}.cls-3{fill:url(#radial-gradient-3);}.cls-4{fill:url(#radial-gradient-4);}.cls-5{fill:url(#radial-gradient-5);}</style><radialGradient id="radial-gradient" cx="82.19" cy="102.51" r="0.29" gradientUnits="userSpaceOnUse"><stop offset="0" stop-color="#ef4136"/><stop offset="0.14" stop-color="#f15438"/><stop offset="0.43" stop-color="#f6843c"/><stop offset="0.67" stop-color="#fbb040"/><stop offset="1" stop-color="#f6f192"/></radialGradient><radialGradient id="radial-gradient-2" cx="83.55" cy="101.53" r="0.9" xlink:href="#radial-gradient"/><radialGradient id="radial-gradient-3" cx="118.27" cy="102.51" r="0.29" xlink:href="#radial-gradient"/><radialGradient id="radial-gradient-4" cx="116.9" cy="101.53" r="0.9" xlink:href="#radial-gradient"/><radialGradient id="radial-gradient-5" cx="100.23" cy="50.38" r="79.32" xlink:href="#radial-gradient"/></defs><title>phoenix</title><g id="Layer_2" data-name="Layer 2"><g id="_5" data-name="5"><g id="phoenix"><path class="cls-1" d="M82.54,102.29c-1,.58-.87.59,0,0Z"/><path class="cls-2" d="M83.07,102a5.32,5.32,0,0,0,1.49-1.24,23.88,23.88,0,0,1-2,1.53Z"/><path class="cls-3" d="M117.91,102.29c.87.59,1,.58,0,0Z"/><path class="cls-4" d="M117.91,102.29a23.88,23.88,0,0,1-2-1.53,5.47,5.47,0,0,0,1.49,1.24Z"/><path class="cls-5" d="M157.32,37.27s19.82-5.24,30.89-16c0,0-15.47,3.27-26.23-.29,0,0,28-9.41,38.47-19.1,0,0-53.86.62-61.21,12.27C131.56,26.3,118.43,27.78,105.47,28a16.07,16.07,0,0,0,3.84-6.88l11.21-1-10.39-3.71c0-.49.05-1,.05-1.5,0-8.78-5.39-10.44-10.76-13C93-1.2,76.1.44,76.1.44s5.86,1.2,9.15,4C80.81,6.94,72.87,7.56,72.87,7.56l10.8,3c-1.11,3.29-6.33,4.77-6.33,4.77,4.93,4.16,11,1.51,16,12.57-12.42-.3-24.78-2.14-32.14-13.81S0,1.85,0,1.85C10.49,11.54,38.47,21,38.47,21c-10.75,3.56-26.23.29-26.23.29,11.08,10.79,30.9,16,30.9,16,10.73,5.41-22,2.35-22,2.35S27.72,48.35,53,53c8.14,1.5,22.95,1.66,33.81,1.53,2,16.1-15.44,32.78-15.44,32.78A18.69,18.69,0,0,0,89.48,74.05c2.17-7.1,1.31,19.67-4.92,26.71,4.52-3.74,13.25-13,15.67-29.42,2.41,16.4,11.15,25.68,15.66,29.42-6.23-7-7.09-33.81-4.92-26.71A18.69,18.69,0,0,0,129,87.32S111.61,70.64,113.6,54.54c10.87.13,25.68,0,33.82-1.53,25.32-4.66,31.91-13.39,31.91-13.39S146.58,42.68,157.32,37.27Zm-57.1,16.88v0Z"/></g></g></g></svg>